<svg fill="none" height="273" viewBox="0 0 602 273" width="602" xmlns="http://www.w3.org/2000/svg"><path d="m598.5 241.7c-.9-7.2-1.5-11.7-2.2-17.4l-.3-2.2-1.3-10.3c-.4-3-2.4-5.5-5.2-6.5l.1-43.7c0-8.3-2.9-16.5-8.8-24.7 5.8-7.3 8.9-15.8 9-25.1l.1-16.1999v-4c0-10.3.1-19.5.1-33 .1-28.3-24.2-47.6-47.1-51.40005-4.1-.7-8.2-1-12.3-1-1.3 0-2.5.00001-3.6.10001-.8 0-1.3 0-1.9 0-3.5 0-6.5 0-10-.5-.7-.1-1.4-.3-2.1-.5-2.3-1.6-5.7-4-10.8-4-1.1 0-1.6-.00001-2 .09999-2.8.4-4.4 1.2-5.3 1.6-.7.3-1.2.5-1.6.7l-9-2.5c-2.6-.699999-5.3-.09999-7.4 1.60001-2 1.7-3.1 4.4-2.7 7l1.1 9.00004c-2.7-.9-5.5-1.4-8.4-1.8-1.4-.2-2.6-.2-4-.2-2.2 0-4.3.1999-6.6.5999-1.6.3-3.2.4001-4.8.2001-.8-.1-1.6-.2-2.3-.4-2.2-1.2-5.3-3-9.7-3-3.8.3-5.5.9-7 1.5-1.8-1.3-3.8-2.2-6-2.6-1.3-.3-1.9-.4-2.5-.4-3.5 0-5.4.6-6.6 1-.5.2-1 .3-1.5.5-1.6-.9-4.7-2.8001-9.1-2.8001-1.2 0-1.6.0001-2.1.1001-3.7.7-5.8 1.9-7.1 2.7-2.2-2-4.8-3.3-7.7-3.9-1.7-.3-2.1-.3-2.6-.3-2.6 0-4.1.4-5.2.6-3.7.9-5.1 1-5.5 1-.9 0-1.7-.1-2.6-.3-2.2-1.1-4.9-2.50004-8.9-2.50004-2.4 0-3.3.2-4.1.5-3 1.10004-4.5 2.00004-5.5 2.70004l-4.1-.1001c-2.6-1.7-4.6-2.89994-7.5-3.59994-1.4-.3-2-.40001-2.6-.40001-3.5 0-5.5.6-7.1 1.1-1.9.6-3.1.9-3.7.9-.8 0-1.6-.09999-2.4-.29999-2.4-1.1-4.9-2.20001-8.5-2.20001-1.4 0-2 .10001-2.5.20001-4 1-5.6 1.99999-6.9 2.79994-.2.2-2.6.3-7.1.5-1 0-1.9.2001-2.7.4001-5.1-2.70004-10.7-4.30005-15.5-4.30005-3.1 0-6 .7-8.6 1.9-1 .5-1.4.60001-1.6.70001-3.9-1.8-6.8-2.40001-9.8-2.40001-4.8 0-9.8 1.6-14.8 4.80005l-5 .2c-1.9-1.3-4.5-3.00005-8.2-3.50005-.8-.1-1.5-.2-2.3-.2-3.5 0-5.9 1.1-7.3 1.70005-.8.4-1.3.5999-1.8.6999-1.4-.6-3.9-1.69995-7.3-1.69995-1.7 0-2.3.1-2.9.2-4.4 1.09995-6.6 2.80005-7.8 3.90005-2.6-1.7-5.6-2.8001-8.7-2.9001-3.6 0-5.7.8001-6.9 1.3001-4.3 1.6-5.7 1.8-5.8 1.8-1.7.1-2.1 0-2.4 0-1.7-.7-4-1.5-7.1-1.5-2.5 0-3.4.2-4.3.5-2.7 1-3.8 1.6-4.7 2.2-.6-.3-1.3-.5-2-.7-.3-.1-.9-.2-1.8-.5-.6-.1-1.2-.2-1.8-.2-5.1 0-8 1.5-10 2.7-.8-.2-1.7-.3-2.5-.4-2.1-.3-4.2-.4-6.2-.4-1.5 0-3 .0999-4.5.1999-3.5.4-6.7 1.2001-10.3 2.6001-1.7.7-3.4 1.1999-5.2 1.3999-1.8.1-1.9.1001-1.9.1001-1.6-.5-3.7-1.2-6.5-1.2-1.6 0-2.2.1-2.7.2-2.8.6-4.4 1.3-5.7 2.1-7.7001-9.2-19.8001-14.40005-33.8001-14.40005-3.1 0-6.4.3-9.7.8-6.2 1-10.7 1.7-15.5 3.20005-1.5.5-3 1.0999-4.5 1.6999-1.6.7-3.9 1.6-5.3 2-1.4-.1-2.8-.3-4.1-.5-2.2-.3-3.9-.5999-5.7-.5999-2.4 0-4.6.4-6.7 1.3-2.9 1.3-4.7 3-6 4.4-1.5 1.5-2.5 2.3-2.9 2.7l-5.79996 1.5c-3.9 1-6.50000068 4.8-6.000001 8.8l5.000001 37.8999c.4 3.1 2.6 5.7001 5.59996 6.6001l.1 32.2999c0 6.2-1.99996 10.3-3.39996 13.2-1.3 2.7-3.1 6.4-2.6 11.4.2 1.7.6 3.3 1.2 4.6-.8 2-1.2 4.2-1.2 6.3 0 4.8 2.1 8 3.1 9.6 1.1 1.7 3.09996 4.9 3.09996 10.6l.1 40.1c-3.79996.7-6.49996 3.7-6.79996 7.2l-3.700001 42.7c-.2 2.6.800001 5.2 2.900001 6.9 2 1.7 4.7 2.3 7.29996 1.6l7.2-2c1.7 1 3.6 2 6.3 2.5 1.2.2 1.7.3 2.2.3 5.3 0 8.4-1.8 10.9-3.3 1.7-1 2.5-1.4 3-1.7 2.5-.4 4.9-.5 7.7-.5h2.9c6 0 12.1-.5 19.2-1.6 7.9-1.2 32.1001-6.9 41.6001-31.8 1.7.2 2 .2 2.3.2 5 0 8.1-1.9 9.7-2.9 1-.4 1.4-.4 1.8-.4.9 0 2 0 3.2.1 3.2.4 5.1.6 7.4.6 1.2 0 2.4-.1 3.5-.2 3.7-.4 7.3-1.2 10.8-2.5 0 0 1.4-.5 1.8-.6 1.2-.4 1.7-.6 2.5-.7 1.6.4 3.6.9 6.1.9 2.2 0 4.4-.4 6.5-1.3.8-.3 1.7-.8 4.5-2.5l12.2-1.9 1.9-.1c2.2 1.8 4.9 3.1 7.7 3.5 1.1.2 1.5.2 1.9.2 4.9 0 7.9-1.7 8.9-2.3 2.5.4 5 1.3 8.1 1.3.7 0 2 0 4.1-.1 2.3-.1 4.6-1.1 6-3l1.9-2.3c1.9-.1 2.1-.1 2.3-.2l19.4-2.8c6.3 4.1 13.4 6.6 19.1 6.6 3.5 0 6.6-.8 9.4-2.5 3.4 1.6 6.1 2.2 8.9 2.2 5 0 10.6-2 15.9-5.4.7.2 1.5.3 2.3.4h5.8c2 1.7 4.2 3.5 7.8 4.4 1.8.4 2.4.5 3.1.5 4.6 0 7.1-1.1 8.8-1.9 2.5-.1 4.5.4 6.7.9 4 1 8.2 1.5 13 1.6 3.6 0 5.9-.4 7.4-.7 1.8-.3 2.1-.4 2.4-.4 2.4 1.2 4.9 1.8 7.6 1.8 1.8 0 2.5-.1 3.1-.3 2.3-.6 4.5-1.5 6.7-2.4 1.9 1.6 4.2 2.7 6.6 3.3 1.5.4 2.1.4 2.7.4 4.3 0 6.8-1.1 7.7-1.5 2.3.9 5.4 2.6 9.6 2.6.6 0 2.3-.2 5.1-.6 1.9-.3 3.7-1.2 5-2.7l2.4-.6c.5 0 3.2-.1 8.1-.5l3.6 1c.4.3.9.8 1.7 1.4 1.9 1.6 4.3 3.7 8.2 4.6 1.5.4 2.1.4 2.8.4 4.1 0 6.3-.8 7.8-1.4 1.5.3 3 .7 4.2 1 .5.1 1 .3 1.5.5 2.4.8 5.5 1.9 9.4 2.3 1.6.2 3.3.3 5 .3 2.6 0 4.6-.2 6-.4 0 0 1.6-.2 2-.3.3 0 .1 3.7-.6 11.3-.3 2.1.2 4.3 1.5 6.1 1.3 1.7 3.2 2.9 5.4 3.1l5.7.7c.6.4 1.6 1.2 3.2 2.4 2.5 1.9 4.6 3.6 8.2 4.4 1.8.4 2.4.5 2.9.5 2.5 0 3.8-.2 5.6-.5 1.4-.2 4.3-.7 5.8-.7 1.1.2 2.6.6 3.9 1.1.3.1 1.3.7 1.8 1 2.3 1.3 5.4 3 9.8 3 .6 0 1.3 0 2-.1 2.4-.3 4.2-1.1 6-1.8 1.2-.5 2-.8 2.6-1l5.8 1c1.5 1.9 3.4 3.9 6.3 5.3 2.2 1.1 4.7 1.6 7.2 1.6.4 0 1.2 0 3-.2 1-.1 2.3-.2 3.2-.2 2.7 1.4 5.8 3.4 10.6 3.4 4.5-.3 6.8-1.5 8.1-2.1.7-.4 1.2-.6 1.7-.8l7.7 1.5c3.5.1 5.5-.6 7-2 1.9-1.8 2.8-4.3 2.5-6.9z" fill="#000"/><g fill="#fff"><path d="m547.4 113.6c0 11.4-3.3 13.1-10.3 11.9-6.8-1.1-9.7-3.8-9.7-11.8.1-26.7.1-40.0999.2-66.8 0-7.1 3.6-10.2999 9.4-9.2999 5.2.8 10.6 4 10.6 12.9-.1 25.2-.1 37.9-.2 63.0999zm29.6 105.5v8.2c0 1.7-.7 2.2-1.6 2-1.3-.2-1.9-1.8-1.9-4.3l.2-63.4c0-13.6-15.8-25.4-15.7-26.2 0 0 15.8-7.4 15.8-23.6.1-21.2999.1-31.8999.2-53.1999s-19.8-33.2-33.7-35.5c-7.4-1.2-11.6-.7001-15.2-.7001-3.9 0-7.8-.0999-12.3-.6999-1.9-.3-4.5-.9001-6.5-1.8001-1.9-.9-4-2.5999-4.2-2.5999-.3 0-6.8 3.6-10.7 2.5 1.3 10.6 1.9 15.9999 3.2 26.5999 1 .1 1.6.2001 2.6.4001 0-3.2 0-4.8 0-8 0-4 .7-4.5 2-4.3 1 .1 1.6.5 1.6 4.5 0 19.1-.1 28.7-.1 47.8 0 18.1999-6.8 30.7999-6.9 32.0999 0 .2 4.5 4.6 4.5 6.6 0 .9-.3 1.7-1 2.4-.6.8-2.8 1.8-2.9 2.2-.2 1 6.1 13.9 6.1 27.8 0 21.3-.1 31.9-.1 53.2 0 4.3-.7 4.7-1.9 4.6-1.9-.3-2.3-2.3-2.3-4.3 0-3.1 0-4.6 0-7.7-1-.1-1.5-.2-2.6-.3-1.6 10-2.4 15.1-3.9 25.1 2.9.4 9.9 6.7 10.6 6.8.6.1 8.4-1.7 12.6-1.1 2.3.3 4.8 1 7.4 2s5.5 3 6.1 2.9c.9-.1 7.4-3.7 11.3-3-1.3-9.9-1.9-14.8-3.2-24.7-.9-.1-1.7-.3-2.6-.4v7.7c0 2.6-.3 2.8-1.3 2.6-2.6-.4-3.5-4-3.5-16.2.1-21.8.1-32.8.1-54.6 0-9.9 2.6-11.5 9.4-10.4 7.1 1.1 10.6 3.5 10.6 14-.1 32.3-.1 48.5-.2 80.7 3.5.6 8.2 8.9 9 9.2.4.2 6.1-.6 8.7-.2 1.3.2 2.9.5 4.5 1.1s3.7 2.2 3.8 2.1c.3 0 6.7-3.8 9.6-3.3-1.2-9.7-1.9-14.5-3.1-24.2zm-87.2-27.5v-20.2c0-5.7 2.9-11.2 2.9-11.7-.1-.8-9-5.2-9-20.3-.7-.1-1.1-.1-1.8-.2 0 14.1-8.5 16.2-9.1 17.6-.2.4 1.8 7.5 1.8 12.7v16.4c0 10-1.6 11.4-6.5 10.9-5.4-.6-7.5-2.5-7.5-7.9 0-18.6.1-28 .1-46.6 0-12.7 0-15.7 4.2-15.2 1.6.2 3.6 1.8 3.6 3.8 0 1.8-.3 2.9-1 4.2-1 1.8-1.5 3.7-1.6 5.7 0 4.1 6.3 7 6.5 6.7 0 0-1.6-2.7-1.6-4.1 0-1.6 1.9-2.7 4.9-5.1 1.8-1.4 3.1-3.3 3.1-6 0-3.2-1.8-5.7-4.4-7.8l6-3.1c-2.3-2-3.4-3-5.7-5 2.8-1.3 4.2-3.4 4.2-5.9 0-2.3-1.8-5.2-3.1-6.5-2.6-2.6-3.6-4.0999-3.6-5.3999 0-1.4 1.1-3.3 1-3.5 0-.1-6.7 1.7-6.7 5.3999 0 1.8.5 3.8 1 5.1.5 1.2 1 1.9 1 3.8 0 1.4-1.3 3.3-3.1 3-2.8-.3-4.7-1.4-4.6-11.4l.1-45.2999c0-9.1 2.6-11.3001 7-10.8001 4.9.6 7 4.2001 7 12.2001v13.9c0 7.5-2.7 11.7-2.6 12.2.1.6999 9.1 7.2 9 19.7999l2.1.2c0-12.9999 8-16.1999 8.6-17.5999.1-.3-1.8-6.6-1.8-12.5 0-8.7 0-13.1.1-21.8 0-6.6 2.4-10.5001 2.4-10.6 0 0-6.2-4.8-6.7-5-.4-.1-4.4 1.7-6.2 1.5-3.1-.4001-5.2-1.5-7.3-2.2s-4.1-1.4-7.3-1.7c-2-.2-4-.1-6 .2-3.1.6-6.2.6999-9.4.3999-2.1-.2-4.4-.6999-6.2-1.2999s-3.7-2-4.1-2c-.7.1-4.7 3.3999-8.1 3.2999.9 7.9 1.4 11.9 2.3 19.8001l2.1.1999c0-3 0-4.5 0-7.5.3-1.8.8-2.3999 2.1-2.2999 1 .1 1.3.8 1.3 2.6l-.1 47.1c0 10.4999-4.7 17.0999-4.7 17.7999 0 .3 3.1 3.5 3.1 4.8 0 1.6-3 3.9-3.1 4.3s4.7 8.2 4.6 23c0 17.5 0 26.2-.1 43.7 0 2.5-.5 3.4-1.8 3.2-1.3-.1-1.6-1.1-1.6-3.8v-7.3c-.9-.1-1.4-.1-2.3-.2-.9 8.1-1.4 12.2-2.4 20.3 2.6.7 7.3 5.4 7.8 5.5.3.1 4.1-1.9 6.5-1.6 3.1.3 6.2 1.1 8.8 1.8s5.2 1.9 8.3 2.3c3.9.4 6 0 8-.2 1.8-.2 3.9-.7 7.3-.3 1.5.2 2.8.6 4.1 1s3.2 1.7 3.6 1.6 6.9-2.8 7-3c-.1-.4-2.4-3.9-2.4-15.1zm-74.9-161.2c-1.6-.1-3.2-.5-4.7-1-1.6-.6-3.4-1.8999-3.6-1.8999s-4.7 3.4999-7 3.3999v20.5c1 .1 1.6.1001 2.6.2001.4-2.9.6-4.3001 1-7.2001.3-2 1-2.6999 1.8-2.5999 1.6.1 1.6 1.5 1.3 4.2-1.9 20.1-2.8 30.1-4.7 50.2-.5 5.1999-3.9 11.3999-3.9 12.6999 0 .7 2.3 3.6 2.3 5.4s-2.5 3.8-2.6 4.6c-.1.4 1.6 3.3 1.3 8.7-.4 9.1-.6 13.6-1.1 22.7-.7-.1-1.1-.1-1.8-.1l-1-22.3c-.3-4.6 1.9-8.5 1.8-9 0-.4-2.9-3.4-2.9-5s3.1-4.5 3.1-5-4.9-7.4-5.4-18.7999l-2.5-45.9c0-2.1.3-2.9.8-2.9.8.1 1.3.7999 1.6 3.0999l.8 6.7001c.8.1 1.3.1 2.1.1 0-8.2001 0-12.3 0-20.5-3.9-.3-7.1-4.3001-7.5-4.3001-.2 0-6.5 1.9001-10.9 1.7001-2.2-.1-4.4-.4-6.5-1-1.8-.5-3.9-1.9-4.2-1.8s-4.2 4.4-7.6 4.2c1.6 8.1 2.3 12.1 3.9 20.2.8 0 1.3.1 2.1.1 0-3.4 0-5.0001 0-8.4001 0-1.1.8-1.7999 1.6-1.7999 1.1.1 1.8.5 2.1 4 1.4 21.8 2.2 32.6999 3.6 54.6.5 6.5999-3.4 10.3999-3.4 10.9999 0 .3 3.1 2.4 3.1 4s-2.6 3.9-2.6 4.2 5.5 5 7 25.6c1.5 21.2 2.3 31.8 3.8 53 1.8.1 5.4 4.8 5.7 4.9.1 0 3.9-2 7.8-1.8 2.1.1 4 .4 5.2.8 1.5.5 3.2 2.1 3.4 2.1 0 0 3.9-4.5 6-4.3l7.1-62.7c1.1-9.7 6-13.8 6-14.1 0 0-3.9-3.5-3.9-5.3s3.3-3.9 3.4-4.3c0-.3-2.6-6.4-1.5-16.2999 1.9-19.6 2.8-29.4 4.8-49 .3-1.6.5-2.2 1.3-2.2.8.1 1.3.8 1.3 2.4v7.1c.9.1 1.4.1 2.3.2 1.2-7.8 1.7-11.7 2.9-19.5-2.1-.2-6.7-4.6-7.3-4.7-.4-.5-5.2 1.3999-8.3 1.0999zm-42.2 120.2c-.2-.7-8.8-6.3-8.8-19.1-.7 0-1.1 0-1.8-.1 0 13.4-7.3 16.4-8.1 18.1-.2.4 2.3 6.2 2.3 16.3v11.4c0 6.4-1.3 9.9-8.6 9.7s-8.1-3.9-8.1-10.3v-45.7c0-10.2 4-16.3 3.9-17 0-.1-3.1-2.6-3.1-4.4s3.1-4.3 3.1-4.7c0-.1-3.9-5.9999-3.9-18.2999 0-17.8 0-26.8001 0-44.6001 0-3 .5-4.1 2.1-4s2.1 1.0001 2.3 2.8001v6.1c.7 0 1.1-.0001 1.8.0999l2.6-18.7999c-3.1-.1-7.6-3.7-8.3-3.9-.5-.1001-5.7 2.1-10.2 2-2.1-.1001-4.2-.3001-6.2-.8001s-4.2-1.6999-4.4-1.6999c-.5.1-5.2 3.6-7.8 3.5.6 7.5.9 11.1999 1.6 18.6999h1.8v-5.1999c0-3.2001.5-4.1 1.6-4.1 1 0 1.8.7 1.8 3.9v45.5c0 8.2-5 17.4999-4.9 18.0999 0 .1 3.1 3.2 3.1 4.8 0 .7-.3 1.6-.8 2.3s-2.6 1.8-2.6 2c0 .1 5.2 6.7 5.2 17.1v50.3c0 2.5-.5 3.4-1.8 3.4s-1.6-.9-1.6-2.5v-6.6h-2.1c-.8 7.4-1.2 11-2.1 18.4 3.4 0 8 4.7 8.6 4.9.5.1 4.2-2.2 7.3-2.1 4.2.1 7.6.8 10.9 1.6 3.1.7 6.2 1.1 9.9 1.2 1.8.1 3.7-.4 5.5-.7 1.7-.3 3.4-.6 4.9-.5 1 0 2.1.3 3.4.6 1 .2 2.7 1.4 3.1 1.3.8-.2 7.9-3.5 8.1-3.9 0 0-2.6-5.8-2.6-16.3v-13c0-10.1 3-15.3 2.9-15.8zm-98.2 36.2c-4.9.1-7.3-2.1-7.3-8.5 0-16.8 0-25.3 0-42.1 0-11.2 4.2-20 4.2-20.8 0-.3-3.4-3.3-3.4-5.2 0-1.8 3.3-4.6 3.4-5.1 0-.2-4.2-4.7-4.2-17.8999 0-17.8 0-26.8 0-44.6 0-5.7 2.1-8 7.5-8.1 5.5-.1 7 2.4 7 7.6v45c0 8.7-4.5 17.2999-4.4 17.9999 0 .1 3.4 3.1 3.4 4.7s-3.4 4.2-3.4 4.6c0 .3 4.4 5.2 4.4 20.2v43.2c0 7.1-2.6 8.9-7.2 9zm29.6-101.7999c0-16.6 0-24.8 0-41.4 0-16.2-17.8-21.5-20.8-20-.8.4-4.4 2.3-8.3 2.4-1.8 0-4-.1001-5.5-.6001-1.3-.4-2.7-1.3-3.1-1.5-5.5-2.6-21.6 10.8001-21.6 23.3001v42.5c0 12.4999-4.8 16.8999-4.7 17.4999 0 .1 3.4 2.6 3.4 4.2s-3.3 3.9-3.4 4.4c-.1.4 4.7 5.8 4.7 15.1v48c0 13.4 18.7 21.3 21.9 19.4 1.1-.6 4.2-2.3 7.8-2.4 1.8 0 3.4.1 4.9.4 1.2.3 2.5 1.5 3.1 1.8 3.6 1.7 21.6-7.3 21.6-28.3v-35.9c0-13 4.7-19.5 4.7-20 0-.1-3.4-3-3.4-4.6s3.3-4.6 3.4-5c0-.3-4.7-4.1-4.7-19.2999zm-69.6-60.2c-.2 0-4.9 2.4999-8.1 2.5999-1.6.1-3.2-.0999-4.7-.3999-1.6-.4-3.4-1.4-3.6-1.4-.3.1-4.7 4.0999-7 4.2999v20.5c1-.1 1.6-.0999 2.6-.0999.4-2.9.6-4.4 1-7.3.3-2.1 1-2.8 1.8-2.8 1.6-.1 1.6 1.2999 1.3 4-1.9 20.2999-2.8 30.5-4.6 50.8-.5 5.2999-3.9 11.7999-3.9 13.1999 0 .7 2.3 3.3 2.4 5.1 0 1.8-2.5 4.1-2.6 4.9 0 .4 1.6 3.1 1.3 8.6-.4 9.1-.6 13.7-1 22.8l-1.8.1c-.4-8.9-.6-13.3-1.1-22.2-.3-4.5 1.9-8.7 1.8-9.2 0-.3-2.9-3-2.9-4.6s3.1-4.9 3.1-5.4-4.9-6.7-5.5-18.0999l-2.6-45.6c0-2.1.3-3 .8-3 .8-.1 1.3.6 1.6 2.9l.8 6.6 2.1-.1c0-8.2 0-12.3 0-20.5-3.9.2-7.1-3.3-7.6-3.4-.1 0-6.5 2.7-10.9 3-2.3.2-4.5.0999-6.5-.2001-1.8-.3-3.9-1.3999-4.2-1.2999s-4.1 4.9-7.5 5.2l3.9 19.7c.8-.1 1.2-.1 2.1-.2v-8.4001c0-1.1.8-1.8999 1.6-1.8999 1-.1 1.8.2999 2.1 3.7l3.7 54.0999c.5 6.6-3.5 10.9-3.4 11.4 0 .2 3.1 2 3.1 3.6s-2.6 4.2-2.6 4.5 5.5 4.4 7 24.7l4 52.5c1.8-.1 5.4 4.1 5.7 4.1.1 0 3.9-2.5 7.8-2.8 2.1-.1 4-.1 5.2.1 1.5.3 3.2 1.7 3.4 1.6 0 0 3.9-5 6-5.1 2.8-25.4 4.2-38.2 7-63.6 1-9.8 6-14.5 6-14.8 0 0-3.9-3-3.9-4.8s3.3-4.2 3.4-4.7c0-.3-2.6-6-1.6-16.1 1.9-19.7999 2.8-29.6999 4.6-49.5999.3-1.6.5-2.3 1.3-2.3s1.3.6 1.3 2.2v7.1l2.3-.1c1.1-8 1.7-11.9 2.8-19.9-2.1-.1-6.8-3.9-7.3-4zm-75.1 109.1999-1.8.2c0 14.1-8.5 17.7-9 19.5-.2.5 1.8 7.1 1.8 12.3v16.4c0 10-1.5 11.7-6.5 12.3-5.4.6-7.5-.8-7.5-6.3l-.1-46.6c0-12.7 0-15.7 4.1-16.1 1.6-.2 3.6 1 3.6 3 0 1.8-.3 3-1 4.4-.8 1.6-1.6 3.8-1.5 6.1 0 4.1 6.4 5.6 6.5 5.3 0 0-1.6-2.4-1.6-3.7 0-1.6 1.9-3.1 4.9-6.2 1.8-1.8 3.1-3.9 3.1-6.7 0-3.2-1.8-5.3-4.4-6.9 2.4-1.8 3.6-2.7 6-4.4-2.3-1.5-3.4-2.3-5.7-3.8 2.8-1.9 4.1-4.3 4.1-6.8 0-2.3-1.8-4.8-3.1-5.9-2.6-1.9999-3.6-3.2999-3.6-4.5999 0-1.4 1.1-3.6 1-3.7 0 0-6.7 3.2-6.7 6.8 0 1.7999.5 3.5999 1 4.8999.5 1.1 1 1.7 1.1 3.5 0 1.4-1.3 3.5-3.1 3.7-2.9.3-4.7-.4-4.7-10.4 0-18.0999 0-27.1999-.1-45.2999 0-9.1 2.6-11.9 7-12.3 4.9-.5 7 2.6999 7 10.6999v13.9001c0 7.5-2.7 12.3-2.6 12.8.1.3 9.1 5.2999 9.1 17.7999.8-.1 1.2-.1 2.1-.1999 0-13 8-17.6 8.5-19.4.1-.4-1.8-6.2-1.8-12.1v-21.9c0-6.6 2.4-11.0001 2.3-11.1 0 0-6.3-3.4-6.8-3.5-.3-.1001-4.4 2.7-6.2 2.9-3.1.3-5.2-.4-7.3-.6s-4.2-.5-7.3-.2c-1.8.2-3.6.5999-6 1.5999-3 1.2-6.1 2.0001-9.3 2.4001-2.1.2-4.4.3-6.2 0-1.8-.2-3.8-1.2-4.2-1.1-.9.2-4.6 4.4-8 5.1l2.4 19.3c.8-.1 1.2-.2001 2.1-.2001 0-3 0-4.5 0-7.5.3-1.9.8-2.5999 2.1-2.7999 1-.1 1.3.4999 1.3 2.2999 0 18.8.1 28.3001.1 47.1001 0 10.4999-4.7 18.0999-4.6 18.7999 0 .3 3.1 2.8 3.1 4.2 0 1.6-3 4.4-3.1 4.9-.1.4 4.7 7.2 4.7 21.9 0 17.5.1 26.2.1 43.7 0 2.5-.5 3.5-1.8 3.6-1.3.2-1.6-.7-1.6-3.5 0-2.9 0-4.4 0-7.3-.9.1-1.4.2-2.3.3-.9 8.3-1.4 12.5-2.3 20.8 2.6.1 7.3 3.7 7.8 3.8.3 0 4.1-2.8 6.5-3.1 3.1-.4 6.2-.3 8.8-.1s5.2.8 8.3.4c3.9-.4 6-1.3 8-2 1.8-.6 3.9-1.5 7.3-1.8 1.6-.1 2.8-.1 4.1 0s3.2 1 3.6.8c.5-.2 6.9-4.2 7-4.5 0 0-2.3-3-2.3-14.1 0-8.1 0-12.2 0-20.3 0-5.7 3-11.8 2.8-12.3-.3-.3-9.2-3.1-9.2-18.2zm-106.3001 82.2-.2-57.4c0-11.7 5.3-19.7 5.1-20.5 0-.1-5.2-4.3-5.2-5.7 0-1.7 5.4-6 5.5-6.6 0 0-5.5-6.2-5.5-18.2-.1-21.6999-.1-32.5999-.1-54.2999 0-10.8 2.2-16 9.6-17.2 8.1-1.3 9.4 3.4 9.4 14.2l.1 53.9999c0 11.7-5.4 19-5.1 20.1.2.8 3.9 4 3.9 6s-4.8 5.9-4.8 6.4c0 0 6.1 6.7 6.2 19 .1 22.9.1 34.3.2 57.2 0 11.4-3.2 13.3-9.3 14.2-5.9.9-9.7.2-9.8-11.2zm51.1001-97.9c0-.4-4.9001-6.5-4.9001-21.7999 0-20.1-.1-30.2001-.1-50.3 0-16.2001-13.7-26.1001-34-23-5.8.8999-9.4 1.5-12.9 2.6-3.2 1.1-8.4 3.6999-12.9 4.4-3.2.6-11.4-1.3-12.3-1-.5.2-5.8 6.5-10.3 7.6l3 22.5c1.2-.2 1.7-.3 2.9-.5 0-2.5 0-3.8 0-6.3 0-5.1.3-6.3001 1.9-6.6001s1.9.2001 1.9 4.8001l.2 57.9999c0 13.6-6.2 21.4-6 23 .1.8 3.6 4.2 3.6 5.9 0 2-3.5 5.6-3.5 6.6 0 .7 6.1 7.4 6.2 20.2l.2 61.7c0 4-.6 5.2-2.6 5.6-1.9.4-2.6-.7-2.6-4.6v-8.2c-.9.2-1.3.2-2.2.4l-2.2 25.2c3.2-.9 8.9 3.2 9.7 3.3.5.1 6.1-3.9 9.6-4.6 4.5-.8 8.4-.9 13.2-.8s10.3-.3 17.7-1.4c12.2-1.9 31.9-10 31.9-38.4 0-18.3-.1-27.5-.1-45.8 0-16.5 4.9001-24.7 4.8001-25.4 0-.2-4.2-4.3-4.2-6-.2001-1.7 3.9-6.1 4-7.1zm477.8 133.5c-.7.2-2 .7-4.5 2-1.1.5-2.1 1.1-3.8 1.2-3.1 0-4.7-1-5.8-1.7-.3-.2-1.2-.7-1.5-.9-.9-.3-2.1-.5-3.1-.7-2 0-3.4.1-4.6.2-1.1.1-1.9.1-2.4.1s-2.1 0-3.8-.8c-2-.9-3.1-2.4-4.5-4.5-.3-.5-.7-.9-1-1.4l-10.3-1.3c-1.3.1-4.3 1.4-5.4 1.8-1.4.6-2.5 1.1-3.8 1.2-3.4.1-5.1-.9-7-1.9-.9-.5-2.1-1.1-2.9-1.4-1.9-.7-3.8-1.2-5.8-1.5-3 0-6.1.5-8 .8-1.6.2-2.4.4-3.4.4l-1.9-.2c-1.9-.5-3-1.3-5.2-3-1.1-.9-3.9-3.1-5.3-3.8l-7.5-1 2.2-14.4.6-3.8c-1.4-.3-2.6-.9-3.6-1.4-1.7-.7-2.5-.9-3.4-1-2.6-.1-3.3 0-4.2.1-.4.1-1.9.2-1.9.2-1.3.2-2.9.4-5 .4-1.3 0-2.6-.1-4.1-.2-3-.3-5.5-1.2-7.5-1.9-.7-.2-1.4-.5-2-.7-1.8-.5-4.5-1.2-7-1.5-.6.1-1.7.6-2.2.8-1.1.4-2.3.9-3.9.9l-1.9-.2c-2-.5-3.2-1.5-4.9-2.9-.7-.6-2.6-2.2-3.5-2.7l-6.3-1.7-8.3.6-5.6-.4c-.5.5-1 .9-1.4 1.5l-2 2.3-3.5.5c-3.3 0-5.1-1.4-6-2-1.1-.6-2.2-.7-3.7-.8-1 0-2.2.3-3.7 1-.6.3-1.8.8-3.6.8l-1.8-.2c-2.5-.6-3.9-2.1-5.1-3.4-.3-.3-.8-.9-1.3-1.4-3.2 1.4-6.5 2.6-9.8 3.7l-2.1.3c-2.1 0-3.7-.8-4.9-1.4-1-.3-1.6-.5-1.9-.5-.8 0-1.8.1-2.8.3-1.1.2-1.5.2-1.9.3-1.4.3-3.1.6-5.1.6-4.9-.1-8.6-.6-12.1-1.4-3.1-.7-5.9-1.3-9.2-1.4-.5.1-1.9.7-2.5 1-1.3.6-2.7 1.2-4.6 1.2l-2-.3c-1.9-.5-3-1.4-4.2-2.4-.6-.5-2.2-1.8-3.1-2.3l-8.2-.1.6-5.3c-6.1 6.8-13.7 10.4-18.8 10.4-1.6 0-3.1-.3-4.5-1-.7-.4-1.4-.8-2.1-1.3-.6-.1-1.3-.1-1.9-.1-1.3 0-2.6.2-4.4 1.3-1.5.9-3.3 1.4-5.4 1.4-4.9 0-11.6-2.7-17.1-6.9l-22.2 3-5 .3c-.7.7-1.3 1.4-1.9 2.2l-2.4 3-3 .1c-3.3 0-4.8-1-5.7-1.5-2.1-.3-2.7-.3-3.3-.2-.4 0-1.7.2-4 1.6-.6.4-2.1 1.2-4.2 1.2-3.9-.5-5.4-2-6.5-3.1-.3-.3-.6-.6-.9-.9l-5.7.4-14.1 2c-3.6 2.3-4.4 2.6-4.8 2.8-1 .4-2.2.7-3.3.7-1.5 0-2.8-.4-3.8-.7-.7-.2-1.4-.2-2.1-.3-2.7.2-3.9.6-5.3 1.1l-1.7.6c-2 .7-4.7 1.6-9.1 2.1-.9.1-1.8.1-2.7.1-1.9 0-3.5-.2-4.9-.4-.7-.1-1.3-.2-2-.2-1.2-.1-2.4-.1-3.7-.1-1.2 0-2.3 0-3.3.1-.7.3-2.1 1.1-2.6 1.4-1.3.8-2.8 1.7-5.2 1.7-3-.4-4.2-1.1-5.5-1.9-.4-.3-1.5-1-2.4-1.5-5.2 27.7-29.6001 33.8-37.6001 35-6.7 1-12.4 1.5-18 1.5 0 0-2.3 0-3 0-3.4 0-6.4.1-9.8.7-1 .2-3.8 1.9-4.9 2.5-2.1 1.3-3.7 2.2-6.1 2.2-3-.4-4-1-5.2-1.7-.6-.3-2.3-1.3-3.3-1.6l-10.09996 2.8 3.69996-42.7 6.8-1.3-.1-46.7c0-8.1-3.1-12.9-4.4-14.9-.8-1.2-1.8-2.8-1.8-5.2 0-2.7 1.2-4.7 2.4-6.4-1.1-1.5-2.2-3.1-2.4-5.3-.3-2.7.7-4.8 1.8-7 1.6-3.3 4.2-8.7 4.2-16.8l-.1-40.9999-5.6 1-4.99996-37.9 6.89996-1.7c.6-.2 2.2-1.2 5.5-4.5 1.1-1.1 2-2.0001 3.5-2.7001 1.1-.5 2.3-.6999 3.6-.6999 1.2 0 2.6.2 4.6.5 1.8.2999 4.4.6 5.8.6 2.3-.4 5.2-1.5 7.8-2.6 1.4-.6001 2.8-1.1 4.1-1.6 4.1-1.4 8.1-2 14.2-2.9 2.8-.4 5.7-.7 8.5-.7 14.7 0 26.3 6.8 31.6001 17.6 1.5-.5 3-1.8 3.7-2.3 1.5-1.3 2.9-2.4001 5.1-2.9001l1.8-.1999c1.5 0 2.7.3999 3.7.6999 1.9.5 2.5.5 3.1.5 3.4 0 6.7-.7 9.8-2 2.6-1.1 5.3-1.7999 8.1-2.0999 1.3-.1 2.5-.2 3.7-.2 2.1 0 3.9.2 5.3.4.7.1 1.5.2 2.2.3 1 .2 1.8.3 2.6.3.8-.3 1.9-.9001 2.4-1.2001 1.7-.9 3.1-1.7999 5.4-1.7999l2 .2999c.9.3 1.3.4001 5.7 2.7001.4-.3.8-.7 1.3-1.3.8-.8 1.8-1.9 3.6-2.5l1.3-.5c3.1 0 4.3.5 5.4.9.4.1 1.2.3999 1.5.5.8.1 1.7.1999 2.6.1999.6 0 1.3.0001 2-.0999 1.1-.1 3.4-.5 8-2.3 1-.4 2-.8 3.5-.8 3.4.3999 4.8 1.5999 5.7 2.1999.3.3 1.1.9001 1.6 1.1001l1.9-.1001 2.4-.0999c.6-.4 1.5-1 2.7-2 1-.8 2.1-1.7001 3.8-2.1l1.9-.2c1.8 0 3.1.6 4.2 1.1.3.2 1.1.4999 1.3.6.6.1 1.3.1999 1.9.1999.8 0 1.9-.2999 4.8-1.5999 1.1-.5 2.3-1 4.1-1 3.1.3 4.4 1.2 5.9 2.2.5.4 1.6 1.1 2.4 1.5l8.3-.3-.2 1.1999c3.6-2.9 8.6-6 13.8-6 1.8 0 3.5.4001 5 1.1001 1.3.7 1.9 1 2.1 1.1s1.2.2 2.6.2c1.6 0 3.2-.5 5-1.5 1.6-.8 3.4-1.2 5.2-1.2 5 0 11.5 2.5 16.5 6.4.7.5 1.3 1.0999 2 1.7l-.4-4.3001 8.1.1001c.6-.3 1.7-.8 3.2-1.8 1.1-.7 1.9-1.2 3.1-1.5l2.1-.3001c1.8 0 3.1.6001 4.3 1.1001.6.3 1.5.7 2.1.8 1.5.3 3 .4999 4.5.5999 2 0 4.6-.7999 6.1-1.2999 1.4-.4 2.5-.8 3.9-.8l1.8.2c1.6.4 2.7 1.0999 4 1.8999.7.4 2.4 1.5001 3.2 1.8001l8.5.3c.3.1.8-.2 1.4-.8.7-.6001 1.6-1.5 3.2-2l2.7-.5c2.1 0 3.5.7 4.7 1.4.4.2 1.2.6 1.6.7 1.4.4 2.9.6 4.7.7 2.9 0 6.6-1.0001 7.9-1.3.9-.2001 1.6-.4 2.6-.4 3.9.6 5.3 1.9 6.2 2.8.4.3 1.4 1.3 2.1 1.6l4.2.3c.5-.2 1.2-.7 2.5-1.5.9-.6 2-1.4 3.7-1.7 3.6-.1 5.2.8 6.3 1.5.4.2 1.1.6 1.4.8.9.3 1.7.4999 2.6.6.7 0 2.1-.3 4.2-1 1-.3 1.9-.6 3.2-.6l1.7.2c2 .4 3.3 1.5 4.9 2.8.5.4 1.3 1.1 2.1 1.6.7-.3 1.6-.9 2-1.1 1.3-.8 2.7-1.7 4.8-1.9 3.1 0 4.8.9 6.1 1.6.4.2 1.2.7 1.5.8 1.1.4 2.8.7 4.4.9 2.4.3 4.8.2 7.1-.3 2.7-.5 5.5-.6001 8.3-.3001 3.9.4 6.7 1.4001 8.9 2.1001.7.2 1.4.5 2.2.8 1 .4 1.9.8 2.9 1 .6-.2 1.4-.4 1.8-.6.9-.3 1.7-.6 2.7-.7l-2.2-18.70004 11.2 3.09994c.5 0 1.9-.2999 5-1.6999.7-.30005 1.5-.70004 2.7-.90004 3.9-.1 5.6 1.10004 6.7 1.90004.5.3 1.5 1 2 1.3 1.1.5 2.9 1 4.4 1.2 3.9.6 7.4.6 11.1.6h2.1c1 0 2.1-.1 3.4-.1 3.7 0 7.2.3 11 .9 19.6 3.2 40.5 19.6 40.4 43.5 0 15.1-.1 24.9-.1 36.9l-.1 16.1999c0 11.7-6.1 19.8-11.6 24.7 5.2 5.8 11.5 14.6 11.4 25l-.2 50.2 5.3 1.1 1.3 10.3c.9 6.9 1.5 11.6 2.5 19.6l1.4 11zm16.5-10.1c-.9-7.1-1.5-11.7-2.2-17.4l-.3-2.2-1.3-10.3c-.4-3-2.4-5.5-5.2-6.5l.1-43.7c0-8.3-2.9-16.5-8.8-24.7 5.8-7.3 8.9-15.8 9-25.1l.1-16.1999v-4c0-10.3.1-19.5.1-33 .1-28.3-24.2-47.6-47.1-51.40005-4.1-.7-8.2-1-12.3-1-1.3 0-2.5.00001-3.6.10001-.8 0-1.3 0-1.9 0-3.5 0-6.5 0-10-.5-.7-.1-1.4-.3-2.1-.5-2.3-1.6-5.7-4-10.8-4-1.1 0-1.6-.00001-2 .09999-2.8.4-4.4 1.2-5.3 1.6-.7.3-1.2.5-1.6.7l-9-2.5c-2.6-.699999-5.3-.09999-7.4 1.60001-2 1.7-3.1 4.4-2.7 7l1.1 9.00004c-2.7-.9-5.5-1.4-8.4-1.8-1.4-.2-2.6-.2-4-.2-2.2 0-4.3.1999-6.6.5999-1.6.3-3.2.4001-4.8.2001-.8-.1-1.6-.2-2.3-.4-2.2-1.2-5.3-3-9.7-3-3.8.3-5.5.9-7 1.5-1.8-1.3-3.8-2.2-6-2.6-1.3-.3-1.9-.4-2.5-.4-3.5 0-5.4.6-6.6 1-.5.2-1 .3-1.5.5-1.6-.9-4.7-2.8001-9.1-2.8001-1.2 0-1.6.0001-2.1.1001-3.7.7-5.8 1.9-7.1 2.7-2.2-2-4.8-3.3-7.7-3.9-1.7-.3-2.1-.3-2.6-.3-2.6 0-4.1.4-5.2.6-3.7.9-5.1 1-5.5 1-.9 0-1.7-.1-2.6-.3-2.2-1.1-4.9-2.50004-8.9-2.50004-2.4 0-3.3.2-4.1.5-3 1.10004-4.5 2.00004-5.5 2.70004l-4.1-.1001c-2.6-1.7-4.6-2.89994-7.5-3.59994-1.4-.3-2-.40001-2.6-.40001-3.5 0-5.5.6-7.1 1.1-1.9.6-3.1.9-3.7.9-.8 0-1.6-.09999-2.4-.29999-2.4-1.1-4.9-2.20001-8.5-2.20001-1.4 0-2 .10001-2.5.20001-4 1-5.6 1.99999-6.9 2.79994-.2.2-2.6.3-7.1.5-1 0-1.9.2001-2.7.4001-5.1-2.70004-10.7-4.30005-15.5-4.30005-3.1 0-6 .7-8.6 1.9-1 .5-1.4.60001-1.6.70001-3.9-1.8-6.8-2.40001-9.8-2.40001-4.8 0-9.8 1.6-14.8 4.80005l-5 .2c-1.9-1.3-4.5-3.00005-8.2-3.50005-.8-.1-1.5-.2-2.3-.2-3.5 0-5.9 1.1-7.3 1.70005-.8.4-1.3.5999-1.8.6999-1.4-.6-3.9-1.69995-7.3-1.69995-1.7 0-2.3.1-2.9.2-4.4 1.09995-6.6 2.80005-7.8 3.90005-2.6-1.7-5.6-2.8001-8.7-2.9001-3.6 0-5.7.8001-6.9 1.3001-4.3 1.6-5.7 1.8-5.8 1.8-1.7.1-2.1 0-2.4 0-1.7-.7-4-1.5-7.1-1.5-2.5 0-3.4.2-4.3.5-2.7 1-3.8 1.6-4.7 2.2-.6-.3-1.3-.5-2-.7-.3-.1-.9-.2-1.8-.5-.6-.1-1.2-.2-1.8-.2-5.1 0-8 1.5-10 2.7-.8-.2-1.7-.3-2.5-.4-2.1-.3-4.2-.4-6.2-.4-1.5 0-3 .0999-4.5.1999-3.5.4-6.7 1.2001-10.3 2.6001-1.7.7-3.4 1.1999-5.2 1.3999-1.8.1-1.9.1001-1.9.1001-1.6-.5-3.7-1.2-6.5-1.2-1.6 0-2.2.1-2.7.2-2.8.6-4.4 1.3-5.7 2.1-7.7001-9.2-19.8001-14.40005-33.8001-14.40005-3.1 0-6.4.3-9.7.8-6.2 1-10.7 1.7-15.5 3.20005-1.5.5-3 1.0999-4.5 1.6999-1.6.7-3.9 1.6-5.3 2-1.4-.1-2.8-.3-4.1-.5-2.2-.3-3.9-.5999-5.7-.5999-2.4 0-4.6.4-6.7 1.3-2.9 1.3-4.7 3-6 4.4-1.5 1.5-2.5 2.3-2.9 2.7l-5.79996 1.5c-3.9 1-6.50000068 4.8-6.000001 8.8l5.000001 37.8999c.4 3.1 2.6 5.7001 5.59996 6.6001l.1 32.2999c0 6.2-1.99996 10.3-3.39996 13.2-1.3 2.7-3.1 6.4-2.6 11.4.2 1.7.6 3.3 1.2 4.6-.8 2-1.2 4.2-1.2 6.3 0 4.8 2.1 8 3.1 9.6 1.1 1.7 3.09996 4.9 3.09996 10.6l.1 40.1c-3.79996.7-6.49996 3.7-6.79996 7.2l-3.700001 42.7c-.2 2.6.800001 5.2 2.900001 6.9 2 1.7 4.7 2.3 7.29996 1.6l7.2-2c1.7 1 3.6 2 6.3 2.5 1.2.2 1.7.3 2.2.3 5.3 0 8.4-1.8 10.9-3.3 1.7-1 2.5-1.4 3-1.7 2.5-.4 4.9-.5 7.7-.5h2.9c6 0 12.1-.5 19.2-1.6 7.9-1.2 32.1001-6.9 41.6001-31.8 1.7.2 2 .2 2.3.2 5 0 8.1-1.9 9.7-2.9 1-.4 1.4-.4 1.8-.4.9 0 2 0 3.2.1 3.2.4 5.1.6 7.4.6 1.2 0 2.4-.1 3.5-.2 3.7-.4 7.3-1.2 10.8-2.5 0 0 1.4-.5 1.8-.6 1.2-.4 1.7-.6 2.5-.7 1.6.4 3.6.9 6.1.9 2.2 0 4.4-.4 6.5-1.3.8-.3 1.7-.8 4.5-2.5l12.2-1.9 1.9-.1c2.2 1.8 4.9 3.1 7.7 3.5 1.1.2 1.5.2 1.9.2 4.9 0 7.9-1.7 8.9-2.3 2.5.4 5 1.3 8.1 1.3.7 0 2 0 4.1-.1 2.3-.1 4.6-1.1 6-3l1.9-2.3c1.9-.1 2.1-.1 2.3-.2l19.4-2.8c6.3 4.1 13.4 6.6 19.1 6.6 3.5 0 6.6-.8 9.4-2.5 3.4 1.6 6.1 2.2 8.9 2.2 5 0 10.6-2 15.9-5.4.7.2 1.5.3 2.3.4h5.8c2 1.7 4.2 3.5 7.8 4.4 1.8.4 2.4.5 3.1.5 4.6 0 7.1-1.1 8.8-1.9 2.5-.1 4.5.4 6.7.9 4 1 8.2 1.5 13 1.6 3.6 0 5.9-.4 7.4-.7 1.8-.3 2.1-.4 2.4-.4 2.4 1.2 4.9 1.8 7.6 1.8 1.8 0 2.5-.1 3.1-.3 2.3-.6 4.5-1.5 6.7-2.4 1.9 1.6 4.2 2.7 6.6 3.3 1.5.4 2.1.4 2.7.4 4.3 0 6.8-1.1 7.7-1.5 2.3.9 5.4 2.6 9.6 2.6.6 0 2.3-.2 5.1-.6 1.9-.3 3.7-1.2 5-2.7l2.4-.6c.5 0 3.2-.1 8.1-.5l3.6 1c.4.3.9.8 1.7 1.4 1.9 1.6 4.3 3.7 8.2 4.6 1.5.4 2.1.4 2.8.4 4.1 0 6.3-.8 7.8-1.4 1.5.3 3 .7 4.2 1 .5.1 1 .3 1.5.5 2.4.8 5.5 1.9 9.4 2.3 1.6.2 3.3.3 5 .3 2.6 0 4.6-.2 6-.4 0 0 1.6-.2 2-.3.3 0 .1 3.7-.6 11.3-.3 2.1.2 4.3 1.5 6.1 1.3 1.7 3.2 2.9 5.4 3.1l5.7.7c.6.4 1.6 1.2 3.2 2.4 2.5 1.9 4.6 3.6 8.2 4.4 1.8.4 2.4.5 2.9.5 2.5 0 3.8-.2 5.6-.5 1.4-.2 4.3-.7 5.8-.7 1.1.2 2.6.6 3.9 1.1.3.1 1.3.7 1.8 1 2.3 1.3 5.4 3 9.8 3 .6 0 1.3 0 2-.1 2.4-.3 4.2-1.1 6-1.8 1.2-.5 2-.8 2.6-1l5.8 1c1.5 1.9 3.4 3.9 6.3 5.3 2.2 1.1 4.7 1.6 7.2 1.6.4 0 1.2 0 3-.2 1-.1 2.3-.2 3.2-.2 2.7 1.4 5.8 3.4 10.6 3.4 4.5-.3 6.8-1.5 8.1-2.1.7-.4 1.2-.6 1.7-.8l7.7 1.5c3.5.1 5.5-.6 7-2 1.9-1.8 2.8-4.3 2.5-6.9z"/><path d="m453 250.6v16.9h16v4h-21.1v-20.9zm-57.2 0h6.3l11.1 20.9h-5.2l-2.4-4.5h-13.4l-2.4 4.5h-5.1zm-1.5 12.4h9.2l-4.6-8.6zm-63.6-8.4v-4h24.9v4h-9.9v16.9h-5.1v-16.9zm-40.5 16.9v-20.9h5.1v20.9zm-52.5-7.8v-4h15.7v1.2c0 3.2-1.3 5.8-3.7 7.9-1.4 1.1-3 2-4.8 2.5-2 .6-4.1.9-6.1.9s-4-.3-5.9-.9c-1.7-.6-3.3-1.4-4.7-2.6-2.4-2-3.6-4.6-3.6-7.6 0-1.5.3-2.9.9-4.2s1.5-2.4 2.7-3.4c1.4-1.1 3-2 4.7-2.6 1.9-.6 3.8-.9 5.8-.9 2.7 0 5.1.4 7.2 1.3 2 .8 3.7 2.1 5 3.7l-5.3 1.9c-.9-.9-1.9-1.6-3-2.1-1.2-.5-2.6-.7-3.9-.7-1.4 0-2.6.2-3.7.5-1 .3-2 .8-2.9 1.5-.8.6-1.4 1.3-1.9 2.2-.4.9-.7 1.8-.7 2.8 0 2.2 1 4 3.1 5.3.8.5 1.7.9 2.8 1.2s2.2.5 3.4.5c1.1 0 2.1-.1 3-.3 1-.2 1.8-.5 2.6-.9s1.5-.9 2-1.4c.6-.5 1.1-1.1 1.4-1.8zm-55.5 7.8v-20.9h5.1v20.9zm-40.8-18c1.1.9 1.9 2.1 2.5 3.4s.9 2.8.9 4.4c0 3.1-1.2 5.6-3.7 7.6-1.1.9-2.4 1.5-3.7 2-1.5.5-3 .7-4.5.7h-14.7v-20.9h14c1.9 0 3.7.3 5.2.8 1.6.4 2.9 1.1 4 2zm-3.2 11.3c.8-1 1.3-2.3 1.3-3.6 0-.9-.2-1.8-.5-2.6-.7-1.6-2-2.9-3.6-3.5-.9-.3-1.8-.5-2.8-.5h-9.2v12.9h9.3c1.1 0 2.1-.2 3.2-.7.8-.4 1.6-1.1 2.3-2z"/></g></svg>